<?xml version="1.0" encoding="UTF-8"?>
<!DOCTYPE svg PUBLIC "-//W3C//DTD SVG 1.1//EN" "http://www.w3.org/Graphics/SVG/1.1/DTD/svg11.dtd">
<svg xmlns="http://www.w3.org/2000/svg" style="background: transparent; background-color: transparent; color-scheme: light dark;" xmlns:xlink="http://www.w3.org/1999/xlink" version="1.1" width="55px" height="85px" viewBox="0 0 55 85"><defs/><g><g data-cell-id="0"><g data-cell-id="1"><g data-cell-id="2"><g><rect x="0" y="0" width="54" height="84" fill="none" stroke="none" pointer-events="all"/></g><g data-cell-id="3"><g><rect x="0" y="0" width="54" height="84" fill="none" stroke="none" pointer-events="all"/></g><g data-cell-id="4"><g><rect x="0" y="0" width="54" height="84" fill="none" stroke="none" pointer-events="all"/></g><g data-cell-id="5"><g><path d="M 41 83 C 38.19 83 35.6 82 33.59 80.4 L 1 80.4 L 1 67 L 4.6 67 L 5.8 40 C 3.8 39.6 2.2 37.8 2.2 35.6 L 2.2 18.6 L 14.8 18.6 L 14.8 24.6 L 17 24.6 L 17 18.6 L 20.8 18.6 L 20.8 1 L 33 1 C 35 1 36.8 2.4 37.2 4.4 L 49.99 4.4 L 46 11.2 L 49.99 17.8 L 36.6 17.8 C 34.6 17.8 33 16.4 32.4 14.6 L 32.2 14.6 L 32.2 14.4 L 25.79 14.4 L 25.79 18.4 L 29.6 18.4 L 29.6 24.4 L 31.8 24.4 L 31.8 18.4 L 44.39 18.4 L 44.39 35.4 C 44.39 37.6 42.79 39.4 40.79 39.8 L 41.6 59.2 C 47.79 59.6 52.79 64.8 52.79 71 C 53 77.6 47.59 83 41 83 L 41 83" fill="#ffffff" stroke="none" pointer-events="all" style="fill: light-dark(rgb(255, 255, 255), rgb(18, 18, 18));"/></g></g><g data-cell-id="6"><g><path d="M 33.12 2 C 34.93 2 36.54 3.6 36.54 5.4 L 48.38 5.4 L 44.97 11.2 L 48.38 16.8 L 36.74 16.8 C 34.93 16.8 33.52 15.4 33.32 13.6 C 33.32 13.4 33.12 13.4 33.12 13.4 L 24.89 13.4 L 24.89 19.4 L 28.7 19.4 L 28.7 25.4 L 32.92 25.4 L 32.92 19.4 L 43.57 19.4 L 43.57 35.4 C 43.57 37.2 41.96 38.8 40.14 38.8 L 39.74 38.8 L 40.55 60.2 C 40.75 60.2 40.75 60.2 40.95 60.2 C 46.97 60.2 51.79 65 51.79 71 C 51.79 77 47.17 82 41.16 82 C 38.33 82 35.93 81 33.93 79.4 L 2.01 79.4 L 2.01 68 L 5.62 68 L 7.03 39 L 6.63 39 C 4.82 39 3.21 37.4 3.21 35.6 L 3.21 19.6 L 13.85 19.6 L 13.85 25.6 L 18.07 25.6 L 18.07 19.6 L 21.88 19.6 L 21.88 2 L 23.88 2 L 25.09 2 L 33.12 2 L 33.12 2 M 33.12 0 L 25.09 0 L 23.88 0 L 21.88 0 L 19.87 0 L 19.87 2 L 19.87 17.6 L 18.07 17.6 L 16.06 17.6 L 16.06 19.6 L 16.06 23.6 L 15.86 23.6 L 15.86 19.6 L 15.86 17.6 L 13.85 17.6 L 3.21 17.6 L 1.2 17.6 L 1.2 19.6 L 1.2 35.6 C 1.2 38 2.81 40 4.82 40.8 L 3.61 66 L 2.01 66 L 0 66 L 0 68 L 0 79.4 L 0 81.4 L 2.01 81.4 L 33.32 81.4 C 35.53 83.2 38.33 84 41.16 84 C 48.17 84 54 78.2 54 71.2 C 54 64.6 48.98 59.2 42.56 58.4 L 41.76 40.6 C 43.97 39.8 45.37 37.8 45.37 35.4 L 45.37 19.4 L 45.37 18.8 L 48.17 18.8 L 51.79 18.8 L 50.18 15.8 L 47.37 11.2 L 50.18 6.4 L 51.99 3.4 L 48.58 3.4 L 38.13 3.4 C 37.34 1.4 35.33 0 33.12 0 L 33.12 0 M 26.9 15.4 L 31.31 15.4 L 31.31 15.6 L 31.72 15.6 C 32.12 16.4 32.52 17 33.12 17.4 L 32.92 17.4 L 30.91 17.4 L 30.91 19.4 L 30.91 23.4 L 30.71 23.4 L 30.71 19.4 L 30.71 17.4 L 28.7 17.4 L 26.9 17.4 L 26.9 15.4 L 26.9 15.4" fill="#ffffff" stroke="none" pointer-events="all" style="fill: light-dark(rgb(255, 255, 255), rgb(18, 18, 18));"/></g></g></g><g data-cell-id="7"><g><rect x="2" y="2" width="50" height="80" fill="none" stroke="none" pointer-events="all"/></g><g data-cell-id="8"><g><path d="M 4.99 75.8 L 4.99 70.4 L 5.39 70.4 L 27.88 70.4 C 27.88 69.4 28.08 68.4 28.28 67.4 L 8.57 67.4 L 9.96 38.6 L 36.65 38.6 L 37.44 58.2 C 38.44 58 39.43 57.8 40.42 57.8 L 39.63 38.8 L 39.83 38.8 C 41.62 38.8 43.22 37.2 43.22 35.4 L 43.22 19.4 L 32.66 19.4 L 32.66 25.4 L 28.48 25.4 L 28.48 19.4 L 24.7 19.4 L 24.7 13.4 L 32.86 13.4 C 33.06 13.4 33.06 13.6 33.06 13.6 C 33.06 15.4 34.66 16.8 36.45 16.8 L 48 16.8 L 44.61 11.2 L 48 5.4 L 36.25 5.4 C 36.25 3.6 34.66 2 32.86 2 L 24.9 2 L 23.7 2 L 21.71 2 L 21.71 19.6 L 17.93 19.6 L 17.93 25.6 L 13.75 25.6 L 13.75 19.6 L 3.19 19.6 L 3.19 35.6 C 3.19 37.4 4.79 39 6.58 39 L 6.98 39 L 5.58 67.6 L 2 67.6 L 2 79 L 30.67 79 C 29.88 78 29.28 77 28.88 76 L 4.99 76 L 4.99 75.8 L 4.99 75.8 M 42.62 8 L 41.03 10.8 L 42.62 13.4 L 36.45 13.4 C 36.25 13.4 36.25 13.2 36.25 13.2 L 36.25 8 L 42.62 8 L 42.62 8 M 32.86 4.6 C 33.06 4.6 33.26 4.8 33.26 5 L 33.26 10 L 33.06 10 L 24.9 10 L 24.9 4.6 L 32.86 4.6 L 32.86 4.6 M 6.58 35.6 C 6.38 35.6 6.18 35.4 6.18 35.2 L 6.18 22.2 L 10.76 22.2 L 10.76 28.2 L 20.92 28.2 L 20.92 22.2 L 25.49 22.2 L 25.49 28.2 L 35.84 28.2 L 35.84 22.2 L 40.42 22.2 L 40.42 35.2 C 40.42 35.4 40.23 35.6 40.03 35.6 L 39.63 35.6 L 6.98 35.6 L 6.58 35.6 L 6.58 35.6" fill="#2c5967" stroke="none" pointer-events="all" style="fill: light-dark(rgb(44, 89, 103), rgb(137, 175, 187));"/></g></g><g data-cell-id="9"><g><path d="M 40.91 60 C 34.84 60 30 64.67 30 70.5 C 30 76.33 34.84 81 40.91 81 C 46.96 81 51.8 76.33 51.8 70.5 C 52 64.86 46.96 60 40.91 60 L 40.91 60 M 40.91 78.28 C 36.46 78.28 33.02 74.78 33.02 70.7 C 33.02 66.61 36.66 63.11 40.91 63.11 C 45.14 63.11 48.77 66.61 48.77 70.7 C 48.77 74.78 45.34 78.28 40.91 78.28 L 40.91 78.28" fill="#2c5967" stroke="none" pointer-events="all" style="fill: light-dark(rgb(44, 89, 103), rgb(137, 175, 187));"/></g></g><g data-cell-id="10"><g><path d="M 43.8 67 L 39.6 70.91 L 38.2 69.79 L 36 71.84 L 39.6 75 L 46 69.05 L 43.8 67 L 43.8 67" fill="#2c5967" stroke="none" pointer-events="all" style="fill: light-dark(rgb(44, 89, 103), rgb(137, 175, 187));"/></g></g><g data-cell-id="11"><g><path d="M 26.19 44.16 L 28.2 46.13 L 20 46.13 L 20 49.07 L 28.2 49.07 L 26.19 51.04 L 28.39 53 L 34 47.5 L 28.39 42 L 26.19 44.16 L 26.19 44.16" fill="#2c5967" stroke="none" pointer-events="all" style="fill: light-dark(rgb(44, 89, 103), rgb(137, 175, 187));"/></g></g><g data-cell-id="12"><g><path d="M 19.34 52.16 L 17.27 50 L 12 55.5 L 17.27 61 L 19.34 58.84 L 17.65 57.27 L 25 57.27 L 25 54.32 L 17.27 54.32 L 19.34 52.16 L 19.34 52.16" fill="#2c5967" stroke="none" pointer-events="all" style="fill: light-dark(rgb(44, 89, 103), rgb(137, 175, 187));"/></g></g></g></g><g data-cell-id="13"><g><rect x="2" y="2" width="50" height="80" fill="none" stroke="none" pointer-events="all"/></g><g data-cell-id="14"><g><path d="M 4.99 75.8 L 4.99 70.4 L 5.39 70.4 L 27.88 70.4 C 27.88 69.4 28.08 68.4 28.28 67.4 L 8.57 67.4 L 9.96 38.6 L 36.65 38.6 L 37.44 58.2 C 38.44 58 39.43 57.8 40.42 57.8 L 39.63 38.8 L 39.83 38.8 C 41.62 38.8 43.22 37.2 43.22 35.4 L 43.22 19.4 L 32.66 19.4 L 32.66 25.4 L 28.48 25.4 L 28.48 19.4 L 24.7 19.4 L 24.7 13.4 L 32.86 13.4 C 33.06 13.4 33.06 13.6 33.06 13.6 C 33.06 15.4 34.66 16.8 36.45 16.8 L 48 16.8 L 44.61 11.2 L 48 5.4 L 36.25 5.4 C 36.25 3.6 34.66 2 32.86 2 L 24.9 2 L 23.7 2 L 21.71 2 L 21.71 19.6 L 17.93 19.6 L 17.93 25.6 L 13.75 25.6 L 13.75 19.6 L 3.2 19.6 L 3.2 35.6 C 3.2 37.4 4.79 39 6.58 39 L 6.98 39 L 5.58 67.6 L 2 67.6 L 2 79 L 30.67 79 C 29.88 78 29.28 77 28.89 76 L 4.99 76 L 4.99 75.8 L 4.99 75.8 M 42.62 8 L 41.03 10.8 L 42.62 13.4 L 36.45 13.4 C 36.25 13.4 36.25 13.2 36.25 13.2 L 36.25 8 L 42.62 8 L 42.62 8 M 32.86 4.6 C 33.06 4.6 33.26 4.8 33.26 5 L 33.26 10 L 33.06 10 L 24.9 10 L 24.9 4.6 L 32.86 4.6 L 32.86 4.6 M 6.58 35.6 C 6.38 35.6 6.18 35.4 6.18 35.2 L 6.18 22.2 L 10.76 22.2 L 10.76 28.2 L 20.92 28.2 L 20.92 22.2 L 25.49 22.2 L 25.49 28.2 L 35.84 28.2 L 35.84 22.2 L 40.42 22.2 L 40.42 35.2 C 40.42 35.4 40.23 35.6 40.03 35.6 L 39.63 35.6 L 6.98 35.6 L 6.58 35.6 L 6.58 35.6" fill="#2c5967" stroke="none" pointer-events="all" style="fill: light-dark(rgb(44, 89, 103), rgb(137, 175, 187));"/></g></g><g data-cell-id="15"><g><path d="M 40.91 60 C 34.84 60 30 64.67 30 70.5 C 30 76.33 34.84 81 40.91 81 C 46.96 81 51.8 76.33 51.8 70.5 C 52 64.86 46.96 60 40.91 60 L 40.91 60 M 40.91 78.28 C 36.46 78.28 33.02 74.78 33.02 70.7 C 33.02 66.61 36.66 63.11 40.91 63.11 C 45.14 63.11 48.77 66.61 48.77 70.7 C 48.77 74.78 45.34 78.28 40.91 78.28 L 40.91 78.28" fill="#2c5967" stroke="none" pointer-events="all" style="fill: light-dark(rgb(44, 89, 103), rgb(137, 175, 187));"/></g></g><g data-cell-id="16"><g><path d="M 43.8 67 L 39.6 70.91 L 38.2 69.79 L 36 71.84 L 39.6 75 L 46 69.05 L 43.8 67 L 43.8 67" fill="#2c5967" stroke="none" pointer-events="all" style="fill: light-dark(rgb(44, 89, 103), rgb(137, 175, 187));"/></g></g><g data-cell-id="17"><g><path d="M 26.19 44.16 L 28.2 46.13 L 20 46.13 L 20 49.07 L 28.2 49.07 L 26.19 51.04 L 28.39 53 L 34 47.5 L 28.39 42 L 26.19 44.16 L 26.19 44.16" fill="#2c5967" stroke="none" pointer-events="all" style="fill: light-dark(rgb(44, 89, 103), rgb(137, 175, 187));"/></g></g><g data-cell-id="18"><g><path d="M 19.35 52.16 L 17.28 50 L 12 55.5 L 17.28 61 L 19.35 58.84 L 17.65 57.27 L 25 57.27 L 25 54.32 L 17.28 54.32 L 19.35 52.16 L 19.35 52.16" fill="#2c5967" stroke="none" pointer-events="all" style="fill: light-dark(rgb(44, 89, 103), rgb(137, 175, 187));"/></g></g></g></g></g></g></g></svg>