<?xml version="1.0" encoding="UTF-8"?>
<!DOCTYPE svg PUBLIC "-//W3C//DTD SVG 1.1//EN" "http://www.w3.org/Graphics/SVG/1.1/DTD/svg11.dtd">
<svg xmlns="http://www.w3.org/2000/svg" style="background: transparent; background-color: transparent; color-scheme: light dark;" xmlns:xlink="http://www.w3.org/1999/xlink" version="1.1" width="85px" height="85px" viewBox="0 0 85 85"><defs/><g><g data-cell-id="0"><g data-cell-id="1"><g data-cell-id="2"><g><rect x="0" y="0" width="84" height="84" fill="none" stroke="none" pointer-events="all"/></g><g data-cell-id="3"><g><rect x="0" y="0" width="84" height="84" fill="none" stroke="none" pointer-events="all"/></g><g data-cell-id="4"><g><path d="M 31.9 83.8 L 30.69 73.7 C 29.88 73.5 29.27 73.09 28.46 72.69 L 20.59 78.95 L 5.65 64.01 L 11.91 56.13 C 11.5 55.32 11.3 54.72 11.1 53.91 L 1 52.7 L 1 31.9 L 11.1 30.69 C 11.3 29.88 11.71 29.27 11.91 28.46 L 5.65 20.59 L 20.59 5.65 L 28.46 11.91 C 29.27 11.5 29.88 11.3 30.69 11.1 L 31.9 1 L 53.1 1 L 54.11 11.1 C 54.92 11.3 55.52 11.71 56.34 11.91 L 64.21 5.65 L 79.15 20.59 L 72.89 28.46 C 73.3 29.27 73.5 29.88 73.9 30.69 L 84 31.9 L 84 53.1 L 73.9 54.11 C 73.7 54.92 73.3 55.52 72.89 56.34 L 79.15 64.21 L 64.21 79.15 L 56.34 72.89 C 55.52 73.29 54.92 73.5 54.11 73.9 L 53.1 84 L 31.9 84 L 31.9 83.8 L 31.9 83.8" fill="#ffffff" stroke="none" pointer-events="all" style="fill: light-dark(rgb(255, 255, 255), rgb(18, 18, 18));"/></g></g><g data-cell-id="5"><g><path d="M 51.97 2.01 L 52.98 11.66 C 54.19 12.05 55.2 12.46 56.41 13.06 L 64.06 7.03 L 77.76 20.7 L 71.71 28.33 C 72.11 29.34 72.72 30.54 73.12 31.55 L 82.79 32.56 L 82.79 51.84 L 73.12 52.85 C 72.72 53.86 72.32 55.06 71.71 56.07 L 77.76 63.71 L 64.06 77.37 L 56.41 71.34 C 55.4 71.74 54.19 72.35 53.18 72.74 L 51.97 82.4 L 32.63 82.4 L 31.63 72.74 C 30.42 72.35 29.41 71.95 28.4 71.34 L 20.75 77.37 L 7.05 63.71 L 13.1 56.07 C 12.69 55.06 12.09 53.86 11.68 52.85 L 2.02 51.84 L 2.02 32.56 L 11.68 31.55 C 12.09 30.34 12.49 29.34 13.1 28.13 L 7.05 20.5 L 20.75 6.83 L 28.4 12.86 C 29.41 12.46 30.62 11.85 31.63 11.46 L 32.63 2.01 L 51.97 2.01 L 51.97 2.01 M 53.79 0 L 51.97 0 L 32.63 0 L 30.82 0 L 30.62 1.81 L 29.61 10.25 C 29.21 10.45 28.8 10.65 28.4 10.65 L 21.76 5.22 L 20.34 4.02 L 19.14 5.63 L 5.64 19.09 L 4.44 20.29 L 5.64 21.71 L 11.08 28.33 C 10.88 28.74 10.68 29.14 10.68 29.54 L 2.22 30.54 L 0 30.74 L 0 32.56 L 0 51.84 L 0 53.66 L 1.81 53.86 L 10.27 54.86 C 10.47 55.26 10.68 55.67 10.68 55.87 L 5.23 62.5 L 4.03 63.91 L 5.23 65.11 L 18.93 78.78 L 20.14 79.98 L 21.55 78.78 L 28.2 73.35 C 28.6 73.55 29.01 73.75 29.41 73.75 L 30.42 82.19 L 30.62 84 L 32.43 84 L 51.77 84 L 53.58 84 L 53.79 82.19 L 54.79 73.75 C 55.2 73.55 55.6 73.35 55.8 73.35 L 62.45 78.78 L 63.86 79.98 L 65.07 78.78 L 78.77 65.11 L 79.97 63.91 L 78.77 62.5 L 73.32 55.87 C 73.53 55.47 73.73 55.06 73.73 54.86 L 82.19 53.86 L 84 53.66 L 84 51.84 L 84 32.56 L 84 30.74 L 82.19 30.54 L 73.73 29.54 C 73.53 29.14 73.32 28.74 73.32 28.33 L 78.77 21.71 L 79.97 20.29 L 78.77 19.09 L 65.07 5.43 L 63.86 4.22 L 62.45 5.43 L 55.8 10.85 C 55.4 10.65 54.99 10.45 54.79 10.45 L 53.79 2.01 L 53.79 0 L 53.79 0" fill="#ffffff" stroke="none" pointer-events="all" style="fill: light-dark(rgb(255, 255, 255), rgb(18, 18, 18));"/></g></g></g><g data-cell-id="6"><g><rect x="2" y="2" width="81" height="81" fill="none" stroke="none" pointer-events="all"/></g><g data-cell-id="7"><g><path d="M 83 52.1 L 83 32.71 L 73.28 31.69 C 72.88 30.48 72.47 29.48 71.86 28.46 L 77.94 20.78 L 64.17 7.05 L 56.47 13.11 C 55.46 12.71 54.25 12.1 53.23 11.7 L 52.22 2 L 32.78 2 L 31.77 11.7 C 30.55 12.1 29.54 12.51 28.33 13.11 L 20.63 7.05 L 6.86 20.78 L 12.94 28.46 C 12.53 29.48 11.92 30.68 11.52 31.69 L 2 32.71 L 2 52.1 L 11.72 53.1 C 12.13 54.32 12.53 55.33 13.14 56.54 L 7.06 64.22 L 20.83 77.95 L 28.53 71.89 C 29.54 72.29 30.76 72.9 31.77 73.3 L 32.78 83 L 52.22 83 L 53.23 73.3 C 54.25 72.9 55.46 72.49 56.47 71.89 L 64.17 77.95 L 77.94 64.22 L 71.86 56.54 C 72.27 55.52 72.88 54.32 73.28 53.31 L 83 52.1 L 83 52.1 M 73.89 63.81 L 63.97 73.71 L 56.88 68.06 L 56.07 68.65 C 54.65 69.46 53.03 70.07 51.41 70.68 L 50.6 70.88 L 49.59 79.97 L 35.62 79.97 L 34.4 70.88 L 33.39 70.48 C 31.77 70.07 30.15 69.26 28.73 68.45 L 27.92 68.06 L 20.83 73.71 L 10.91 63.81 L 16.58 56.74 L 16.18 55.93 C 15.37 54.52 14.76 52.9 14.35 51.29 L 13.95 50.48 L 4.83 49.47 L 4.83 35.53 L 13.95 34.32 L 14.35 33.31 C 14.76 31.9 15.57 30.28 16.18 28.87 L 16.58 28.06 L 10.91 20.99 L 20.83 11.09 L 27.92 16.74 L 28.93 16.14 C 30.35 15.33 31.97 14.73 33.59 14.32 L 34.4 13.92 L 35.41 4.83 L 49.39 4.83 L 50.6 13.92 L 51.61 14.32 C 53.03 14.73 54.65 15.54 56.07 16.14 L 56.88 16.55 L 63.97 10.89 L 73.89 20.78 L 68.22 27.86 L 68.62 28.67 C 69.43 30.07 70.04 31.69 70.65 33.31 L 71.05 34.32 L 80.17 35.33 L 80.17 49.26 L 71.05 50.48 L 70.65 51.49 C 70.24 53.1 69.43 54.52 68.62 56.13 L 68.22 56.94 L 73.89 63.81 L 73.89 63.81" fill="#2d5967" stroke="none" pointer-events="all" style="fill: light-dark(rgb(45, 89, 103), rgb(138, 175, 187));"/></g></g><g data-cell-id="8"><g><path d="M 58 33 L 51 33 L 51 40 L 58 40 L 58 33 L 58 33" fill="#2d5967" stroke="none" pointer-events="all" style="fill: light-dark(rgb(45, 89, 103), rgb(138, 175, 187));"/></g></g><g data-cell-id="9"><g><path d="M 67 33 L 60 33 L 60 40 L 67 40 L 67 33 L 67 33" fill="#2d5967" stroke="none" pointer-events="all" style="fill: light-dark(rgb(45, 89, 103), rgb(138, 175, 187));"/></g></g><g data-cell-id="10"><g><path d="M 58 43 L 51 43 L 51 50 L 58 50 L 58 43 L 58 43" fill="#2d5967" stroke="none" pointer-events="all" style="fill: light-dark(rgb(45, 89, 103), rgb(138, 175, 187));"/></g></g><g data-cell-id="11"><g><path d="M 67 43 L 60 43 L 60 50 L 67 50 L 67 43 L 67 43" fill="#2d5967" stroke="none" pointer-events="all" style="fill: light-dark(rgb(45, 89, 103), rgb(138, 175, 187));"/></g></g><g data-cell-id="12"><g><path d="M 33 33 L 41.49 41.5 L 33 50 L 39.71 50 L 48 41.5 L 39.71 33 L 33 33 L 33 33" fill="#2d5967" stroke="none" pointer-events="all" style="fill: light-dark(rgb(45, 89, 103), rgb(138, 175, 187));"/></g></g><g data-cell-id="13"><g><path d="M 18 40 C 19.66 40 21 38.66 21 37 C 21 35.34 19.66 34 18 34 C 16.34 34 15 35.34 15 37 C 15 38.66 16.34 40 18 40 L 18 40" fill="#2d5967" stroke="none" pointer-events="all" style="fill: light-dark(rgb(45, 89, 103), rgb(138, 175, 187));"/></g></g><g data-cell-id="14"><g><path d="M 25 50 C 26.1 50 27 49.1 27 48 C 27 46.9 26.1 46 25 46 C 23.9 46 23 46.9 23 48 C 23 49.1 23.9 50 25 50 L 25 50" fill="#2d5967" stroke="none" pointer-events="all" style="fill: light-dark(rgb(45, 89, 103), rgb(138, 175, 187));"/></g></g><g data-cell-id="15"><g><path d="M 16.5 49 C 18.43 49 20 47.43 20 45.5 C 20 43.57 18.43 42 16.5 42 C 14.57 42 13 43.57 13 45.5 C 13 47.43 14.57 49 16.5 49 L 16.5 49" fill="#2d5967" stroke="none" pointer-events="all" style="fill: light-dark(rgb(45, 89, 103), rgb(138, 175, 187));"/></g></g><g data-cell-id="16"><g><path d="M 28 43 C 30.76 43 33 40.76 33 38 C 33 35.24 30.76 33 28 33 C 25.24 33 23 35.24 23 38 C 23 40.76 25.24 43 28 43 L 28 43" fill="#2d5967" stroke="none" pointer-events="all" style="fill: light-dark(rgb(45, 89, 103), rgb(138, 175, 187));"/></g></g></g></g></g></g></g></svg>