<?xml version="1.0" encoding="UTF-8"?>
<!DOCTYPE svg PUBLIC "-//W3C//DTD SVG 1.1//EN" "http://www.w3.org/Graphics/SVG/1.1/DTD/svg11.dtd">
<svg xmlns="http://www.w3.org/2000/svg" style="background: transparent; background-color: transparent; color-scheme: light dark;" xmlns:xlink="http://www.w3.org/1999/xlink" version="1.1" width="87px" height="84px" viewBox="0 0 87 84"><defs/><g><g data-cell-id="0"><g data-cell-id="1"><g data-cell-id="2"><g><rect x="0" y="0" width="86" height="83" fill="none" stroke="none" pointer-events="all"/></g><g data-cell-id="3"><g><rect x="0" y="0" width="86" height="83" fill="none" stroke="none" pointer-events="all"/></g><g data-cell-id="4"><g><path d="M 24.81 80.21 L 22.08 79.43 L 18.95 76.29 L 4.1 76.29 C 1.96 76.29 0 74.53 0 72.17 L 0 4.11 C 0 1.96 1.76 0 4.1 0 L 71.89 0 C 74.23 0 75.99 1.77 75.99 4.11 L 75.99 22.56 C 84 31.97 84 46.09 75.99 55.7 L 75.99 72.17 C 75.99 74.53 74.23 76.29 71.89 76.29 L 30.08 76.29 L 25.39 81 L 24.81 80.21 L 24.81 80.21" fill="#ffffff" stroke="none" pointer-events="all" style="fill: light-dark(rgb(255, 255, 255), rgb(18, 18, 18));"/></g></g><g data-cell-id="5"><g><path d="M 72.74 1.94 C 74.49 1.94 75.86 3.3 75.86 5.05 L 75.86 23.71 C 83.86 32.85 83.86 46.65 75.86 55.78 L 75.86 72.5 C 75.86 74.25 74.49 75.61 72.74 75.61 L 30.42 75.61 L 26.32 79.7 L 23.6 78.73 L 20.28 75.42 L 5.07 75.42 C 3.31 75.42 1.95 74.06 1.95 72.31 L 1.95 5.05 C 1.95 3.3 3.31 1.94 5.07 1.94 L 72.74 1.94 L 72.74 1.94 M 72.74 0 L 5.07 0 C 2.34 0 0 2.33 0 5.05 L 0 72.5 C 0 75.22 2.34 77.56 5.07 77.56 L 19.5 77.56 L 22.23 80.28 L 22.62 80.67 L 23.01 80.86 L 25.16 81.64 L 26.14 83 L 27.89 81.45 L 31.59 77.95 L 72.94 77.95 C 75.66 77.95 78 75.61 78 72.89 L 78 56.37 C 86 46.65 86 32.46 78 22.93 L 78 5.05 C 77.81 2.33 75.47 0 72.74 0 L 72.74 0" fill="#ffffff" stroke="none" pointer-events="all" style="fill: light-dark(rgb(255, 255, 255), rgb(18, 18, 18));"/></g></g></g><g data-cell-id="6"><g><rect x="1" y="1" width="82" height="78" fill="none" stroke="none" pointer-events="all"/></g><g data-cell-id="7"><g><path d="M 71.29 71.87 C 71.29 72.07 71.1 72.26 70.9 72.26 L 34.71 72.26 C 34.52 72.46 34.32 72.66 34.13 72.85 L 32 75 L 70.9 75 C 72.64 75 74 73.63 74 71.87 L 74 58 C 73.23 58.78 72.26 59.56 71.29 60.35 L 71.29 71.87 L 71.29 71.87" fill="#2d5967" stroke="none" pointer-events="all" style="fill: light-dark(rgb(45, 89, 103), rgb(138, 175, 187));"/></g></g><g data-cell-id="8"><g><path d="M 15.44 73.83 L 15.25 73.44 L 14.86 72.27 L 4.12 72.27 C 3.93 72.27 3.73 72.07 3.73 71.88 L 3.73 4.12 C 3.73 3.93 3.93 3.73 4.12 3.73 L 71.88 3.73 C 72.07 3.73 72.27 3.93 72.27 4.12 L 72.27 17.6 C 73.25 18.38 74.22 19.16 75 19.94 L 75 4.32 C 75 2.56 73.63 1.19 71.88 1.19 L 4.12 1.19 C 2.37 1 1 2.37 1 4.12 L 1 71.88 C 1 73.63 2.37 75 4.12 75 L 16.62 75 L 15.84 74.22 L 15.44 73.83 L 15.44 73.83" fill="#2d5967" stroke="none" pointer-events="all" style="fill: light-dark(rgb(45, 89, 103), rgb(138, 175, 187));"/></g></g><g data-cell-id="9"><g><path d="M 8.5 16 L 10 16 L 10 8 L 8.95 8 L 7 9.64 L 7 10.73 L 8.5 10 L 8.5 16 L 8.5 16" fill="#2d5967" stroke="none" pointer-events="all" style="fill: light-dark(rgb(45, 89, 103), rgb(138, 175, 187));"/></g></g><g data-cell-id="10"><g><path d="M 15 14 L 14 14 L 14 15 L 15 15 L 15 14 L 15 14" fill="#2d5967" stroke="none" pointer-events="all" style="fill: light-dark(rgb(45, 89, 103), rgb(138, 175, 187));"/></g></g><g data-cell-id="11"><g><path d="M 15 10 L 14 10 L 14 11 L 15 11 L 15 10 L 15 10" fill="#2d5967" stroke="none" pointer-events="all" style="fill: light-dark(rgb(45, 89, 103), rgb(138, 175, 187));"/></g></g><g data-cell-id="12"><g><path d="M 20.95 15 L 22.9 11.98 L 24.85 15 L 27 15 L 24.27 10.91 L 26.81 7 L 24.66 7 L 22.9 9.84 L 21.15 7 L 19 7 L 21.54 10.91 L 19 15 L 20.95 15 L 20.95 15" fill="#2d5967" stroke="none" pointer-events="all" style="fill: light-dark(rgb(45, 89, 103), rgb(138, 175, 187));"/></g></g><g data-cell-id="13"><g><path d="M 32.67 7 C 31.45 7 30.57 7.39 30.05 8.17 C 29.35 8.96 29 10.13 29 11.5 C 29 12.87 29.35 14.04 29.88 14.83 C 30.57 15.61 31.45 16 32.5 16 C 33.72 16 34.6 15.61 35.12 14.83 C 35.83 14.04 36 12.87 36 11.5 C 36 10.13 35.65 8.96 35.12 8.17 C 34.77 7.39 33.9 7 32.67 7 L 32.67 7 M 34.25 13.85 C 33.9 14.43 33.38 14.63 32.85 14.63 C 32.33 14.63 31.63 14.24 31.27 13.85 C 30.93 13.46 30.75 12.67 30.75 11.7 C 30.75 10.72 30.93 9.93 31.27 9.54 C 31.63 8.96 32.15 8.76 32.67 8.76 C 33.2 8.76 33.72 8.96 34.08 9.54 C 34.42 10.13 34.6 10.72 34.6 11.7 C 34.6 12.48 34.42 13.26 34.25 13.85 L 34.25 13.85" fill="#2d5967" stroke="none" pointer-events="all" style="fill: light-dark(rgb(45, 89, 103), rgb(138, 175, 187));"/></g></g><g data-cell-id="14"><g><path d="M 47 7 L 45.08 7 L 43.5 9.67 L 41.92 7 L 40 7 L 42.28 10.91 L 40 15 L 41.75 15 C 41.75 15 41.92 15 41.92 14.82 L 43.5 11.98 L 44.38 13.4 C 44.9 13.22 45.43 12.87 45.95 12.69 L 44.9 10.73 L 47 7 L 47 7" fill="#2d5967" stroke="none" pointer-events="all" style="fill: light-dark(rgb(45, 89, 103), rgb(138, 175, 187));"/></g></g><g data-cell-id="15"><g><path d="M 57.83 8.11 C 57.05 7.37 56.07 7 54.9 7 C 53.54 7 52.56 7.37 51.98 8.11 C 51.2 8.85 51 9.96 51 11.26 C 51 11.63 51 11.82 51 12 C 51.39 12 51.98 11.82 52.76 11.82 C 52.76 11.63 52.76 11.44 52.76 11.44 C 52.76 10.52 52.95 9.78 53.34 9.41 C 53.73 8.85 54.32 8.67 54.9 8.67 C 55.49 8.67 56.07 8.85 56.46 9.41 C 56.85 9.96 57.05 10.52 57.05 11.44 L 57.05 11.63 C 57.63 11.63 58.42 11.63 59 11.63 L 59 11.44 C 58.8 9.96 58.61 8.85 57.83 8.11 L 57.83 8.11" fill="#2d5967" stroke="none" pointer-events="all" style="fill: light-dark(rgb(45, 89, 103), rgb(138, 175, 187));"/></g></g><g data-cell-id="16"><g><path d="M 68 7 L 66.08 7 L 64.5 9.84 L 62.92 7 L 61 7 L 63.28 11.16 L 62.75 12.3 C 63.28 12.49 63.8 12.68 64.33 12.68 L 64.5 12.3 L 64.85 12.86 C 65.73 13.24 66.6 13.62 67.3 14 L 65.73 11.16 L 68 7 L 68 7" fill="#2d5967" stroke="none" pointer-events="all" style="fill: light-dark(rgb(45, 89, 103), rgb(138, 175, 187));"/></g></g><g data-cell-id="17"><g><path d="M 10.04 28.45 C 10.39 27.91 10.75 27.55 11.11 27.18 C 11.46 26.82 11.64 26.45 11.64 26.09 C 11.82 25.73 12 25.55 12 25.18 C 12 24.45 11.82 23.91 11.29 23.55 C 10.75 23.18 10.21 23 9.32 23 C 8.96 23 8.61 23 8.07 23.18 C 7.71 23.36 7.36 23.36 7 23.55 L 7 25 C 7.71 24.64 8.43 24.45 8.96 24.45 C 9.86 24.45 10.21 24.82 10.21 25.55 C 10.21 25.55 10.21 25.73 10.21 25.91 C 10.21 26.09 10.04 26.27 9.86 26.64 C 9.68 26.82 9.32 27.18 8.96 27.73 L 7 29.91 L 7 31 L 12 31 L 12 29.55 L 8.96 29.55 L 10.04 28.45 L 10.04 28.45" fill="#2d5967" stroke="none" pointer-events="all" style="fill: light-dark(rgb(45, 89, 103), rgb(138, 175, 187));"/></g></g><g data-cell-id="18"><g><path d="M 15 30 L 14 30 L 14 31 L 15 31 L 15 30 L 15 30" fill="#2d5967" stroke="none" pointer-events="all" style="fill: light-dark(rgb(45, 89, 103), rgb(138, 175, 187));"/></g></g><g data-cell-id="19"><g><path d="M 15 26 L 14 26 L 14 27 L 15 27 L 15 26 L 15 26" fill="#2d5967" stroke="none" pointer-events="all" style="fill: light-dark(rgb(45, 89, 103), rgb(138, 175, 187));"/></g></g><g data-cell-id="20"><g><path d="M 26.8 23 L 24.66 23 L 22.9 25.73 L 21.15 23 L 19 23 L 21.54 26.82 L 19 31 L 20.95 31 L 22.9 28.09 L 24.85 31 L 27 31 L 24.27 26.82 L 26.8 23 L 26.8 23" fill="#2d5967" stroke="none" pointer-events="all" style="fill: light-dark(rgb(45, 89, 103), rgb(138, 175, 187));"/></g></g><g data-cell-id="21"><g><path d="M 30.96 24.37 C 30.32 25.15 30 26.32 30 27.68 C 30 29.05 30.32 30.22 30.8 31 C 30.96 30.22 31.28 29.24 31.44 28.46 C 31.44 28.27 31.44 27.88 31.44 27.49 C 31.44 26.51 31.6 25.73 31.92 25.34 C 32.24 24.95 32.56 24.56 33.2 24.56 C 33.52 23.98 33.68 23.59 34 23 C 33.84 23 33.52 23 33.2 23 C 32.4 23.2 31.6 23.59 30.96 24.37 L 30.96 24.37" fill="#2d5967" stroke="none" pointer-events="all" style="fill: light-dark(rgb(45, 89, 103), rgb(138, 175, 187));"/></g></g><g data-cell-id="22"><g><path d="M 38.86 59.31 L 35.15 63.86 C 33.79 65.57 32.23 67.27 30.67 68.98 L 27.36 72.21 L 21.9 67.09 L 25.21 63.86 C 26.77 62.34 28.52 60.83 30.48 59.5 L 35.35 56.09 C 34.76 55.33 34.18 54.76 33.59 54 L 28.72 57.41 C 26.77 58.74 25.02 60.45 23.26 61.97 L 18 67.09 L 27.16 76 L 32.42 70.88 C 34.18 69.17 35.74 67.47 37.1 65.57 L 41 61.02 C 40.42 60.45 39.64 59.88 38.86 59.31 L 38.86 59.31" fill="#2d5967" stroke="none" pointer-events="all" style="fill: light-dark(rgb(45, 89, 103), rgb(138, 175, 187));"/></g></g><g data-cell-id="23"><g><path d="M 16.96 69 L 16 69.78 L 16.96 72.73 L 22.35 78.02 L 25.04 79 L 26 78.02 L 16.96 69 L 16.96 69" fill="#2d5967" stroke="none" pointer-events="all" style="fill: light-dark(rgb(45, 89, 103), rgb(138, 175, 187));"/></g></g><g data-cell-id="24"><g><path d="M 55.9 63 C 62.18 63 68.47 60.67 73.38 55.82 C 83 46.32 83 31 73.38 21.5 C 63.75 12 48.25 12 38.62 21.5 C 29 31 29 46.32 38.62 55.82 C 43.34 60.67 49.62 63 55.9 63 L 55.9 63 M 40.59 23.44 C 44.91 19.18 50.41 17.04 56.1 17.04 C 61.79 17.04 67.29 19.18 71.61 23.44 C 80.06 31.78 80.06 45.55 71.61 53.89 C 63.17 62.22 49.23 62.22 40.59 53.89 C 31.94 45.55 31.94 31.97 40.59 23.44 L 40.59 23.44" fill="#2d5967" stroke="none" pointer-events="all" style="fill: light-dark(rgb(45, 89, 103), rgb(138, 175, 187));"/></g></g><g data-cell-id="25"><g><path d="M 49.19 46 C 51.46 46 53.16 45.26 54.3 44.15 C 55.43 42.85 56 41 56 38.59 C 56 36.19 55.43 34.33 54.11 33.04 C 52.97 31.74 51.27 31 49 31 C 46.73 31 45.22 31.74 43.89 33.04 C 42.76 34.33 42 36.19 42 38.59 C 42 41 42.57 42.85 43.89 44.15 C 45.4 45.26 46.92 46 49.19 46 L 49.19 46 M 46.54 34.89 C 47.11 33.96 48.05 33.59 49.38 33.59 C 50.51 33.59 51.46 33.96 52.22 34.89 C 52.78 35.81 53.16 36.93 53.16 38.41 C 53.16 39.89 52.78 41.19 52.22 42.11 C 51.65 43.04 50.51 43.41 49.19 43.41 C 48.05 43.41 47.11 43.04 46.35 42.11 C 45.78 41.19 45.4 40.07 45.4 38.41 C 45.6 36.93 45.78 35.63 46.54 34.89 L 46.54 34.89" fill="#2d5967" stroke="none" pointer-events="all" style="fill: light-dark(rgb(45, 89, 103), rgb(138, 175, 187));"/></g></g><g data-cell-id="26"><g><path d="M 64.49 36.38 L 61.61 31.19 L 58.18 31.19 L 62.33 38.31 L 58 46 L 61.25 46 L 64.31 40.42 L 67.38 46 L 67.74 46 C 68.28 45.04 68.64 44.08 69 42.92 L 66.3 38.31 L 68.82 33.88 C 68.46 32.92 68.1 31.96 67.56 31 L 67.2 31 L 64.49 36.38 L 64.49 36.38" fill="#2d5967" stroke="none" pointer-events="all" style="fill: light-dark(rgb(45, 89, 103), rgb(138, 175, 187));"/></g></g><g data-cell-id="27"><g><path d="M 56.04 57 C 60.85 57 65.85 55.08 69.5 51.42 C 77 43.92 77 32 69.5 24.5 C 62 17 50.08 17 42.58 24.5 C 38.92 28.15 37 32.96 37 37.96 C 37 42.96 38.92 47.77 42.58 51.42 C 46.42 55.08 51.23 57 56.04 57 L 56.04 57 M 44.5 26.42 C 47.77 23.15 51.81 21.62 56.04 21.62 C 60.27 21.62 64.5 23.15 67.58 26.42 C 73.92 32.77 73.92 43.15 67.58 49.5 C 61.23 55.84 50.84 55.84 44.5 49.5 C 41.42 46.42 39.69 42.38 39.69 37.96 C 39.69 33.54 41.42 29.5 44.5 26.42 L 44.5 26.42" fill="#2d5967" stroke="none" pointer-events="all" style="fill: light-dark(rgb(45, 89, 103), rgb(138, 175, 187));"/></g></g></g></g></g></g></g></svg>